<mxfile host="65bd71144e">
    <diagram id="EtC9MD6xMV0eD-Kr7Enh" name="第 1 页">
        <mxGraphModel dx="1501" dy="536" grid="1" gridSize="10" guides="1" tooltips="1" connect="1" arrows="1" fold="1" page="1" pageScale="1" pageWidth="827" pageHeight="1169" background="#ffffff" math="0" shadow="0">
            <root>
                <mxCell id="0"/>
                <mxCell id="1" parent="0"/>
                <mxCell id="25" value="" style="group" parent="1" vertex="1" connectable="0">
                    <mxGeometry x="520" y="40" width="190" height="170" as="geometry"/>
                </mxCell>
                <mxCell id="2" value="DOM Tree" style="rounded=1;whiteSpace=wrap;html=1;fillColor=#CCCCFF;fontColor=#000000;strokeColor=#9999FF;" parent="25" vertex="1">
                    <mxGeometry x="60" width="70" height="40" as="geometry"/>
                </mxCell>
                <mxCell id="3" value="" style="rounded=1;whiteSpace=wrap;html=1;fillColor=#CCCCFF;fontColor=#000000;strokeColor=#9999FF;" parent="25" vertex="1">
                    <mxGeometry x="40" y="70" width="40" height="40" as="geometry"/>
                </mxCell>
                <mxCell id="8" style="edgeStyle=orthogonalEdgeStyle;html=1;entryX=0.5;entryY=0;entryDx=0;entryDy=0;strokeColor=#000000;fontColor=#000000;exitX=0.5;exitY=1;exitDx=0;exitDy=0;curved=1;endArrow=none;endFill=0;" parent="25" source="2" target="3" edge="1">
                    <mxGeometry relative="1" as="geometry"/>
                </mxCell>
                <mxCell id="4" value="" style="rounded=1;whiteSpace=wrap;html=1;fillColor=#CCCCFF;fontColor=#000000;strokeColor=#9999FF;" parent="25" vertex="1">
                    <mxGeometry x="110" y="70" width="40" height="40" as="geometry"/>
                </mxCell>
                <mxCell id="9" style="edgeStyle=orthogonalEdgeStyle;curved=1;html=1;entryX=0.5;entryY=0;entryDx=0;entryDy=0;strokeColor=#000000;fontColor=#000000;endArrow=none;endFill=0;" parent="25" source="2" target="4" edge="1">
                    <mxGeometry relative="1" as="geometry"/>
                </mxCell>
                <mxCell id="5" value="" style="rounded=1;whiteSpace=wrap;html=1;fillColor=#CCCCFF;fontColor=#000000;strokeColor=#9999FF;" parent="25" vertex="1">
                    <mxGeometry y="130" width="40" height="40" as="geometry"/>
                </mxCell>
                <mxCell id="10" style="edgeStyle=orthogonalEdgeStyle;curved=1;html=1;entryX=0.5;entryY=0;entryDx=0;entryDy=0;strokeColor=#000000;fontColor=#000000;endArrow=none;endFill=0;" parent="25" source="3" target="5" edge="1">
                    <mxGeometry relative="1" as="geometry"/>
                </mxCell>
                <mxCell id="6" value="" style="rounded=1;whiteSpace=wrap;html=1;fillColor=#CCCCFF;fontColor=#000000;strokeColor=#9999FF;" parent="25" vertex="1">
                    <mxGeometry x="75" y="130" width="40" height="40" as="geometry"/>
                </mxCell>
                <mxCell id="11" style="edgeStyle=orthogonalEdgeStyle;curved=1;html=1;entryX=0.5;entryY=0;entryDx=0;entryDy=0;strokeColor=#000000;fontColor=#000000;endArrow=none;endFill=0;" parent="25" source="3" target="6" edge="1">
                    <mxGeometry relative="1" as="geometry"/>
                </mxCell>
                <mxCell id="12" value="" style="rounded=1;whiteSpace=wrap;html=1;fillColor=#CCCCFF;fontColor=#000000;strokeColor=#9999FF;" parent="25" vertex="1">
                    <mxGeometry x="150" y="130" width="40" height="40" as="geometry"/>
                </mxCell>
                <mxCell id="13" style="edgeStyle=orthogonalEdgeStyle;curved=1;html=1;entryX=0.5;entryY=0;entryDx=0;entryDy=0;strokeColor=#000000;fontColor=#000000;endArrow=none;endFill=0;" parent="25" source="4" target="12" edge="1">
                    <mxGeometry relative="1" as="geometry"/>
                </mxCell>
                <mxCell id="26" value="" style="group" parent="1" vertex="1" connectable="0">
                    <mxGeometry x="520" y="280" width="210" height="190" as="geometry"/>
                </mxCell>
                <mxCell id="16" value="CSSOM Tree" style="rounded=1;whiteSpace=wrap;html=1;fillColor=#CCCCFF;fontColor=#000000;strokeColor=#9999FF;" parent="26" vertex="1">
                    <mxGeometry x="55" width="80" height="40" as="geometry"/>
                </mxCell>
                <mxCell id="19" value="" style="rounded=1;whiteSpace=wrap;html=1;fillColor=#CCCCFF;fontColor=#000000;strokeColor=#9999FF;" parent="26" vertex="1">
                    <mxGeometry x="40" y="70" width="40" height="40" as="geometry"/>
                </mxCell>
                <mxCell id="14" style="edgeStyle=orthogonalEdgeStyle;html=1;entryX=0.5;entryY=0;entryDx=0;entryDy=0;strokeColor=#000000;fontColor=#000000;exitX=0.5;exitY=1;exitDx=0;exitDy=0;curved=1;endArrow=none;endFill=0;" parent="26" source="16" target="19" edge="1">
                    <mxGeometry relative="1" as="geometry"/>
                </mxCell>
                <mxCell id="21" value="" style="rounded=1;whiteSpace=wrap;html=1;fillColor=#CCCCFF;fontColor=#000000;strokeColor=#9999FF;" parent="26" vertex="1">
                    <mxGeometry x="110" y="70" width="40" height="40" as="geometry"/>
                </mxCell>
                <mxCell id="15" style="edgeStyle=orthogonalEdgeStyle;curved=1;html=1;entryX=0.5;entryY=0;entryDx=0;entryDy=0;strokeColor=#000000;fontColor=#000000;endArrow=none;endFill=0;" parent="26" source="16" target="21" edge="1">
                    <mxGeometry relative="1" as="geometry"/>
                </mxCell>
                <mxCell id="22" value="" style="rounded=1;whiteSpace=wrap;html=1;fillColor=#CCCCFF;fontColor=#000000;strokeColor=#9999FF;" parent="26" vertex="1">
                    <mxGeometry y="130" width="40" height="40" as="geometry"/>
                </mxCell>
                <mxCell id="17" style="edgeStyle=orthogonalEdgeStyle;curved=1;html=1;entryX=0.5;entryY=0;entryDx=0;entryDy=0;strokeColor=#000000;fontColor=#000000;endArrow=none;endFill=0;" parent="26" source="19" target="22" edge="1">
                    <mxGeometry relative="1" as="geometry"/>
                </mxCell>
                <mxCell id="23" value="" style="rounded=1;whiteSpace=wrap;html=1;fillColor=#CCCCFF;fontColor=#000000;strokeColor=#9999FF;" parent="26" vertex="1">
                    <mxGeometry x="75" y="130" width="40" height="40" as="geometry"/>
                </mxCell>
                <mxCell id="18" style="edgeStyle=orthogonalEdgeStyle;curved=1;html=1;entryX=0.5;entryY=0;entryDx=0;entryDy=0;strokeColor=#000000;fontColor=#000000;endArrow=none;endFill=0;" parent="26" source="19" target="23" edge="1">
                    <mxGeometry relative="1" as="geometry"/>
                </mxCell>
                <mxCell id="24" value="" style="rounded=1;whiteSpace=wrap;html=1;fillColor=#CCCCFF;fontColor=#000000;strokeColor=#9999FF;" parent="26" vertex="1">
                    <mxGeometry x="150" y="130" width="40" height="40" as="geometry"/>
                </mxCell>
                <mxCell id="20" style="edgeStyle=orthogonalEdgeStyle;curved=1;html=1;entryX=0.5;entryY=0;entryDx=0;entryDy=0;strokeColor=#000000;fontColor=#000000;endArrow=none;endFill=0;" parent="26" source="21" target="24" edge="1">
                    <mxGeometry relative="1" as="geometry"/>
                </mxCell>
                <mxCell id="41" value="" style="shape=image;verticalLabelPosition=bottom;labelBackgroundColor=default;verticalAlign=top;aspect=fixed;imageAspect=0;image=data:image/jpeg,/9j/4AAQSkZJRgABAQEAYABgAAD/2wBDAAMCAgMCAgMDAwMEAwMEBQgFBQQEBQoHBwYIDAoMDAsKCwsNDhIQDQ4RDgsLEBYQERMUFRUVDA8XGBYUGBIUFRT/2wBDAQMEBAUEBQkFBQkUDQsNFBQUFBQUFBQUFBQUFBQUFBQUFBQUFBQUFBQUFBQUFBQUFBQUFBQUFBQUFBQUFBQUFBT/wAARCADaAeIDASIAAhEBAxEB/8QAHwAAAQUBAQEBAQEAAAAAAAAAAAECAwQFBgcICQoL/8QAtRAAAgEDAwIEAwUFBAQAAAF9AQIDAAQRBRIhMUEGE1FhByJxFDKBkaEII0KxwRVS0fAkM2JyggkKFhcYGRolJicoKSo0NTY3ODk6Q0RFRkdISUpTVFVWV1hZWmNkZWZnaGlqc3R1dnd4eXqDhIWGh4iJipKTlJWWl5iZmqKjpKWmp6ipqrKztLW2t7i5usLDxMXGx8jJytLT1NXW19jZ2uHi4+Tl5ufo6erx8vP09fb3+Pn6/8QAHwEAAwEBAQEBAQEBAQAAAAAAAAECAwQFBgcICQoL/8QAtREAAgECBAQDBAcFBAQAAQJ3AAECAxEEBSExBhJBUQdhcRMiMoEIFEKRobHBCSMzUvAVYnLRChYkNOEl8RcYGRomJygpKjU2Nzg5OkNERUZHSElKU1RVVldYWVpjZGVmZ2hpanN0dXZ3eHl6goOEhYaHiImKkpOUlZaXmJmaoqOkpaanqKmqsrO0tba3uLm6wsPExcbHyMnK0tPU1dbX2Nna4uPk5ebn6Onq8vP09fb3+Pn6/9oADAMBAAIRAxEAPwD8/Kmtv+Wv/XM1DU9qCTKBydhoAgop/kyf882/KjyZP+ebflQAyin+TJ/zzb8qPJk/55t+VADKKf5Mn/PNvyo8mT/nm35UAMop/kyf882/KjyZP+ebflQAyin+TJ/zzb8qPJk/55t+VADKKf5Mn/PNvyo8mT/nm35UAMop/kyf882/KjyZP+ebflQAyin+TJ/zzb8qPJk/55t+VADKKf5Mn/PNvyo8mT/nm35UAMop/kyf882/KjyZP+ebflQAyin+TJ/zzb8qPJk/55t+VADKKf5Mn/PNvyo8mT/nm35UAMop/kyf882/KjyZP+ebflQAyin+TJ/zzb8qPJk/55t+VADKKf5Mn/PNvyo8mT/nm35UAMop/kyf882/KjyZP+ebflQAyin+TJ/zzb8qPJk/55t+VADKKf5Mn/PNvyo8mT/nm35UAMop/kyf882/KjyZP+ebflQAyin+TJ/zzb8qPJk/55t+VADKKf5Mn/PNvyo8mT/nm35UAMop/kyf882/KjyZP+ebflQAyin+TJ/zzb8qPJk/55t+VADKKf5Mn/PNvyo8mT/nm35UAMop/kyf882/KjyZP+ebflQAyin+TJ/zzb8qPJk/55t+VADKKf5Mn/PNvyo8mT/nm35UAMop/kyf882/KjyZP+ebflQAyin+TJ/zzb8qPJk/55t+VADKKf5Mn/PNvyooAZSqxQ5UlT7GkrQ0C8sdP1m0uNSsjqNjG+6W1Enl+YPTdj/9fSmtWJ6Igkiu4Y4JJFmjjnBaJ3BCyAEglT3GQRx3BrfbwJrbeItT0aBoJ7rTVaS4kN0kMKIpALb5Sox8w61H40mbUNbjuxqsWp29yimCQARmCMEgRNGOItuMbRxjkEg5rsdOuIrvxh49jkv9MWa/06eOGUX8Yt5JGeMhVmk2Ke/XHQ10YanGtUUZ9pet0rpffoY4ibpU3KO+n4s45/A/iGPVhpzW2Jjbi7Ev2qP7OYCM+b5+7y9nbduxnjOeKRvBPiFda/sv7KxuvI+1blnQw+Rt3eb5wby/Lx/Hu2+9d617p7eBB4JTVrF9ZWzMhuDcoLXebgS/ZxOTsztGd2du7gNTY9R0+Xw5P4R/tOxXVRoqW63rToIGlW6a4Nv5+dmNpADZ2bgRnoa9Z4GgkrSe191vaXu+uiV/PbVHmLF1uy3ts9tPf328vx0ZxNh4B8Qapq39m2otJbxgpjQanbBZw2ceUxk2y8gg7CcEEHBFVNQ8K6vptlc3khgntbaRI5pbO+huVjZwSuTG7cHaeemeOtbvw9gi8K/FPw8dQv7FI4blJJporpJIYhzwZVJQ8YOQxAzgnIIEPwp1S0tfFyWOqPAND1FWt75LpwkTJ95SWPAIdVIPqPeuWGHoT5ItuLk2t07Wta+nd2f3nTOtVjzyVmopPZ673tr2WnqVoPh54jnheUxQW8SRQyu93qNvAFWUExZ8yQYLBSQp5xg45FRxeAvELyX6SxRWRsZlt7g399DaqsjAlVBldQ2QpIxnIGeldHp/i6w1jwz4xvPEQe7ub/ULSZbS0u0tpGwJvubkf5FBUYA4G3kVo2XiZPGWheIJp7HQ7i6n1G0eLTtU1H7JHHDHBJGpVjNEWKjYv3jnJJHpv9Vwsr8kne10r/naP5X+RhLEYmDfMlZNK/8A4D3fm+3Q8sulmtLmWB5QzxOUYxSiRCQccMpIYe4JB7Vty+EdSi8B2/iw3MJ06fUX0xYg7ecJUjWQkjGNuHHOc5zxWLqSeVqN0nlwQ7ZWHl20vmRJyeEfc25R2O45Hc9a96+EvxSuPAvww8K2ul+JI9Gu5fGokv0iuEjm+x+XBkvzuEJKndn5W24OcV51GlCpzqTt8NvnOMfLo36b9DrxFadKMZQV97/+At+fY8UsfDur6j4f1PXLeFpNL0ySGK7n81R5bSlhGNpO45Kt0BxjnFZXnSf89G/OvpbQviDqUWn/ABd8LeEvGy6C39srdeH4k15dOtBbC7m80W0rSJEuVeNtoYbwMjOK7T4dfF5fC/wz0Wxm8Y2FvqsMBN0DqUMkhnbXI/Mdm3Hc3ktKwfJwrO6kAk10UsJTqtJzsnbp5NvqtmmvWxy1sbUoptQv7yS16NbvR/16a/Mel+ALrWPh/rXiu113T5I9HMX2zTCbgXcayyiJGGYvKYEnPEhIHUdq5Z0uooIpnWZIZc+XIwIV8dcHvivoh9Fg1LRfjl9i1nw1HFr+pKdJik8Q2EDTpFqLOxVHmBVdg3AsAGGNucivIPDuq2Wk+FL+PVpRqNpdkrb6PG43pMBj7QX58rA4GBl+hG0Zrjqw5IxdrNrVed2v6/RHZQqOpKab2dl6WT/B3Xy7nI+dJ/z0b86POk/56N+dMorA6x/nSf8APRvzo86T/no350yigB/nSf8APRvzo86T/no350yigB/nSf8APRvzo86T/no350yigB/nSf8APRvzo86T/no350yigB/nSf8APRvzo86T/no350yigB/nSf8APRvzo86T/no350yigB/nSf8APRvzo86T/no350yigB/nSf8APRvzo86T/no350yigB/nSf8APRvzo86T/no350yigB/nSf8APRvzo86T/no350yigB/nSf8APRvzo86T/no350yigB/nSf8APRvzo86T/no350yigB/nSf8APRvzo86T/no350yigB/nSf8APRvzo86T/no350yigB/nSf8APRvzo86T/no350yigB/nSf8APRvzo86T/no350yigB/nSf8APRvzo86T/no350yigB/nSf8APRvzo86T/no350yigB/nSf8APRvzo86T/no350yigB/nSf8APRvzo86T/no350yigB/nSf8APRvzo86T/no350yigB/nSf8APRvzoplFABRRWhoGkHXtZtNPF1b2X2h9n2i6kCRp7k/5ycCmld2Qm7K7M+ivTfCNrpun/EVtPS0vLG2tNOvobmSdf9JlP2abc5jJCqcHhQegGSTk1Y8I+HPDf/CW+Cbsafe3Onaw5T7FeXMUnlypMUJc+SBJGRj5dqnk816FHBOuqbjJe9+Gtr/N2+84q+KVCUoyjsr/AJu34P8Aq1/KqK9F8HeF/C/i69v3Ntq9jZ2wt0EQvopZHeW4WLO/yVAUBwcbSeOvPFwaTF4E+IHhN9Av9Qt472YRys8wV3C3bwsCUA+VhGDtOcZxlutVDATlGFRtcsna/wA7badSZ4yMXKCXvL/K9r69Dy6itXxX/wAjTrH/AF+Tf+hmvRP2WNe1PRvjt4Rh0/UbuxivdQit7qO2naNbiMtko4UjcvsciuOhT9tVjTva7t95vXrOjRlWSvZXt6ank1Fej/DLwBb+L5fEF9f6Ze3+nab5fmPDrFnpEETSOVUyXV0GRScEKgUljnkbee/8VfBDwL8OR4rutduPEGqWum69Z6XZw6bc28TPFcW32gGSQxuu5FyNyghyowFDbl2pYSrVipR6/q7L7yK2KpUarovV3tp95880V9M+Hf2XNLm8Q+JrWe08ReJrbTvFkfh5ItCljimtbZgzG8uGaGQFQuwEAIud2WAxXG2v7PT+Oda8RzeDL2V/Dthqc2n2s02n6lqTTLHjEnnWdi8RDAhgOCARxjDHKdCcIKb2f/A/zX9XKpYmnWk4w1t/X6M8Yor0DR/Hmv8Awh1G90O1W0mew1X7Q5uLaZCZo1ki+64R1UhzlWVWBAyByK1fBnwy0jV/Dul6trt55I1e6liWf+17OxW0jRgrSsk/zTfMSdibcBfvZYY4JVeW7ktOnn/kepGgqllB+9rfTbXvrfp06nlVFevaD8L/AAvdR+GbK7utTuNT15ryKK5spohbQtDJIiyYKEyKxVPlBXjJ3HIA5TRPixregeG00S2S0NokN5ArSRkuFuVQSc7sZGwEccZOc0lW57+zV7fLv+qLlhvZNe2lZPtr2fdd+5xlFdVovh208R+Gb6aJTp99pkZlkup5MW1ypPEZY/cl5woHDAdARk8rXR1scXmFFFFABRRRQAUUUUAFFFFABRRRQAUUUUAFFFFABRRRQAUUUUAFFFFABRRRQAUUUUAFFFFABRRRQAUUUUAFFFFABRRRQAUUUUAFFFFABRRRQAUUUUAFFFFABTlRmDEKSFGWIHQZxz+JFNq3Zf8AHtf/APXAf+jEoAux+LdXjnt5xeM01vavZxyOiswhZWUoSRkja7AZzgcDGBUUfiTUoU0tY7po/wCy3MlmUABhYvvJBAyfm55zWZUkEEl1NHDDG8s0jBEjRSzMxOAAB1JrWNSpG3LJr5+d/wA9fXUzlCEtZJf1/wAOzfb4g62bmW4jmtbaWbyzIbWwt4Q5SQSoSEQAkOAc9TjByOKSDx/rcF/bXvn281zbKywvcWUEwj3SmUlQ6EBt7E7sZGcAgcVqaL8N5r/UNZ02aRJNSstPN0IbaddsUokRSkrkbRtViWwcLjkjBAyT4C1xdZbTDaRi5WAXTObmLyBCVDCTzt3l7MEfNuxk468V1r62owlFys9Va/d/jo36anK/qvNKElFNb3t2X6O34GdrWtXXiDUJL288j7RJ99re2jgVj6lY1UZPc4ya1fA3xC1r4car/aegyWVvfgq0dxdadbXbxMpyGjM0b+W3uuDUB8FauurS6dJBDDcRRLOzzXcMcIjbG1/OZxGVO5cENg5GM09PAmttqt7pzWscNxZIslw89zFFDGjY2sZWYJhty7Tu+bIxnNYqniFLmSd9ddb31v8Ak7/M0lKhKPJJq1ttLW/y2NjS/jN4p0W91W4sptLgGqNC91ajRLE2rvFny3FuYTEjLkncqg5JOck1V8UfFnxX40jv01rVjfC/vYdQuS0ESmS4ih8mNyVUHiM4wOD1IJ5qXxD8PZLXxbf6LpUguZra2hnSCSZWlnLRI7rEVG1yCxIA5IHGT140ggkEYI7UTnWozdNyd0+/Z/5odOFGolWjFa2d7a7afge7eGPjxpuoeGb+28XXd0davNcfV7m9HhrT9YiuFaJUKrDcsiQPlSdyKcggHoK8p+IOuaV4m8bazquh6Qmg6Td3LS22nRkFYVPYY4GeTtX5RnA4ArnqKyqVZVLX6fokl+CX4vdhSw8KLbh1/wA7/wBdugV0GjeO9Y0LTG063ktbiwMnnLbahYQXkaORgsizI4QkYyVxnAznArn6KxaUlZo64ycXeLszes/HWt6fLo8lveiJ9IMhscQx4h3sWfjbg5LHrnHasGiikoqOyHKcp/E7lubVbu4063sHmY2cDM8cIAChm6scdW7ZOTgAdAKqUUVRAUUUUAFFFFABRRRQAUUUUAFFFFABRRRQAUUUUAFFFFABRRRQAUUUUAFFFFABRRRQAUUUUAFFFFABRRRQAUUUUAFFFFABRRRQAUUUUAFFFFABRRRQAUUUUAFW7L/j2v8A/rgP/RiVUq3Zf8e1/wD9cB/6MSgCpWn4c8Q3nhXWINSsTGLiLIHmIGUqRhgc+oJGRg88EVmVZSJDp88pHzrLGoOexD5/kKAOktfEWjac+v8A2G1u7eDU9NNuluxDiCUyIxG4nLJ8hwSN3IBBxk7umfEvTbbybaW3lFu+iw6bLO9nBdNFLHIZA6wykpIpOBhip7jBAz5rRXbTxdWkko9Fb5e9/wDJM5amGp1G3Lr/AMD/ACR6NB460ebV76bUpJL7/QorXT759BtD9l2uGZRZ7/JIILANkkZ6eljXPH/h7xJdazbXKajZ6Zew2Ijmt7WEyo9umwgxBkQKwLY2kYwPlxxXmNFX9eq8vI7Nb+u+/wD4E/Pa97Gf1OnfmW//AA3l5LTbfTVna6x4w0fUfGlzrwsbmWKOCAWdnO4A82OKNAZWUglQVJ+XBbA+7k1y+s6xda/qlzqN86y3dw++V1RUDH1woAqC3s7i8Epggkn8qMyyeWhbYg6scdAMjk+tQ1yVZyqzdSe7u/v3OqnGNOKhHZWX3bBRRRWRoFFakvhjU4PDNv4ge226RcXUllFc+YvzTIiO67c7hhZEOSMc9eDWXTacXZ7/AOauvvTv6CTT1QUUUUhhRRVufSb620+1v5rO4isbpnS3uniZYpmTG8IxGGK7lyB0yM9admxXSKlFFdJe/DvxDp2jSatcaf5enpbW1203nRnEU5YQtgNn5ijcYyMcgVDlGPxOxpGEp35VexzdFFWLuwurDyftNtNbedGs0XmoV8yM9HXPVTg4I4qibNleitx/Beqw+HYtcmjtrfT5gWhM97DHLMobaWjhZxI4DZGVUjg+hrDpJqWw3GUbNq1worc1HwN4i0e4sodR0LUdNkvZBFbi+tngErZAwpcAHqPzqTxN4C13wdFFLq9j9kSWea2Q+dG+ZIm2yL8rHoTjPQ9s1PPC6V9y/ZVLN8rst9Dn6KKt3Gl3VrYWt5LFst7ouIWLDL7ThjjOcZOM4wSD6GrMipRRRQAUUUUAFFFFABRRRQAUUUUAFFFFABRRRQAUUUUAFFFFABRRRQAUUUUAFFFFABRRRQAUUUUAFFFFABRRRQAUUUUAFW7L/j2v/wDrgP8A0YlVKt2X/Htf/wDXAf8AoxKAKlW4v+QTc/8AXeL/ANBkqpVuL/kE3P8A13i/9BkoAqVveCxo39tj+2yRB5beTvB8kzfwedt+by89dvNYNFNOwnqe2/D6xku9f1MeItN0+/vZdT061Jmt45Y0hkEgxFgbQpQKBt4xgjkAia00bTdRLX8GmwprE2jWdxFaado8N6fmkcSvHauyoxAVAThiAScZyw8Mor16ePjCjGk6d+Xrez2t2+f9XPMq4KVSrOqp25raW7W8+tj2bRdQa28ZeK9N0bRvsU9zpTtHp2oaRCs73ISNmVYWDlVbDsIgSuCMDgVT8E+GtVu5tX1C+05Ir6K8gt57GPw5BcyxAozZeBzHHBEQBl8A57gZz5LRUwxyU4znG9r6XstW3tbTe3p5DeDfK1GVr21td6W8+tjofiHptto3jvxBY2cYhtbe+mjijHRFDnAHsK9O+GOh3k3wev8AUfB3hi28V+NTrS213FJpMWrTWdj5O5HS2kSQAPJvBk2HG0LkZ58QorghUUHKy37brVPT7rPybOmdFzhGLe1t+vrr8/U+mfh1rVxpfw/8F2Go6FpNzLqXxDntL+21XSYZRGrJaLLEsLpsizuwdqqy7QFKjIPVfCD4PWsfiCOJdMttW8PXfiq/02a3i8Mwar5FvDIkey7vZ5VNn8pJQxfO2SfnO1a+PKK7FjI86lOF7JK1+ygtdNU+V6f3n8+SpgpSTUJ2vfp35vPpzLXyPoy/8Q6D8J/AHw+k/wCEJ0HX47u91ZNSk1Czie5u7eK5aNIhKyN5ZAbPmKN42qAQMgs+Hfg+TxZ8G/stl4fm8NSpBqN1ceJtV8LwXum38YXKg6jKpe0ZAjxjywQWwcqxNfO1Fc0a7UHGSv7vLfbotfvV7bb92bPC9Yys+a/4t2te2l7fJdlb6t07wx4Y034TaDdp4X1LxFoF14cml1O70Xwpb3zRXpVy8kmpGYS2zQsEOzaFCryGDE1zep614q8U/s2eF5ND0LT9YttPn1S31eSy8N2c5sItkJR2KwEwEoHYzDax25LEqCPnaitJYnm57K3Mrb+d/wDgJdEZwwXK4Nyu4u+q8mu++t790erjw98L/wDhChc/21/xUP2DzPs/9r3X/Hx5edvl/wBj7PvcbfPx28zHzV5vNr+p3FobWXUbuS1KRxGB52KFEz5a7c4wu44HbJx1qhRXDJKTuz1VJxVke7a94HGnHxxrseh20WijRLGbTLpraMwPITa7nhBGG/jDFQR82G+9zm/FDU9b1bwz4X1VNFs73w8dJtRc3sGjwpEsyyMGiM8UatENwC7FdeuABmvG6K5FQd0272a6eVu/zud7xa5ZRjG3Ne+vdp9ttNvPc9Y+MGr2M3hnwTDD4f02yefRI5Unge53wDzpCUQNMVKk55YM3J56Y53wzbaJb+L/AAw+i67ci+/tG3LS6vp0cFtBhwd5ZbhywBxkELkdxXE0VrCnyK1+rf3u/U56tf2klLlWiS+5JdLf1oe3/FnTH0bwTciPT73w3u8QvcNa6orLLeSeWR59vlsiJf7pDY3r+9ft47qGtajq4UX1/dXoV3lH2iZpMO5BduSeWIBJ745qlRU0aXslZu//AAyX6FYjEe3lzJW+fm35d/13bLWmadPq+o2tjbLvuLmVYo19WY4H866TWNRnuvG1pB4eYt9gaOz04xgfNsON/PHzNuc54+Y54rlrW7nsZ1ntppLeZc7ZImKsMjBwR7E1FXT2/r+v+Ccnc6bx4NG/tOI6W0f2nZ/py2Y/0MTd/IJOdvXtjI+X5SMczRRSAKKKKACiiigAooooAKKKKACiiigAooooAKKKKACiiigAooooAKKKKACiiigAooooAKKKKACiiigAooooAKKKKACrdl/x7X//AFwH/oxKqVbsv+Pa/wD+uA/9GJQBUq3F/wAgm5/67xf+gyVUq3F/yCbn/rvF/wCgyUAVK1/DPhq68UX8lvbskUcEL3NzPJnbDCv3nIGScegBJrIqxYX9zpd5Dd2k8ltcwsHjlibayn1BprzEzr/AkunxfE3SbSwhS+0u6u4LVxqlpDMZUZ1DnaysEyc4xyAcbjySnw1srK7+I1nbXPlZkuTFBDcWC3du7sSoEiGRPlGc5BPIHFZ+leOG0vxONd/sbTLi9R0mjR0ljijlXB8xUjkUZJGSD8vJwBTtH8cLofib+3LbQNL+0I6ywwu1yYoHHO5f324knkhiw9AK9OhVpRVD2j+GTb32fL/k/K7XmcFenOTq+zXxRSW2+v8Amvu9BNA8M2OsaVq2rajqbaZaWM0SMlva+c7mTfgIu9RwV6EgYzzkAHt4fhVnwz4hsFktmOm6tDLNrLw4MNl9nkcuQMtggodgzlsDnrXnlx4od7DU7G2sLSws7+WGV4YPNYRmMMBtLuxwdxJyT7YHFbR+LeuCeWeFbW3lkvIbxmjRuWjhMITBYgoyMQwOc59OK2oVMHCLjUj0Sur69+vptbS/XUyr08VOV6bsui000X/B7nJX6Wsd5KtnNLcWoP7uWeIROw9SoZgP++jXo3gf4UaFrvw+bxd4h8Xt4dsRrKaMsEWnfapHdo1cSDMqAKoLFskYCnG4kKfO9TvE1C/muY7OCwSRtwtrbf5aey7mY4+pNa3/AAmt8fAI8I+Vb/2aNT/tXzdred5vleVtzuxt284xnPftXmU5Qi25q/bfuvntc7KsaklFQdu+17Wfqt7Hq3g/9lu58TrPONU1G90+TWpdGsb/AMOaI+q28ojba11NIkirDB8yYYF2ILEKQuTneBtIk0vQfi54W1jT9KuptD0ueVZmsIJJ4bqO8t4WaO4KeaFwWAAYLyTjJrj9A+J0ul+Fo/DuqeH9H8U6RBctd2kOrC4VrSRwBJ5clvNE4V8KWViVygIAOSbfg34tReC9M1myg8GeHr9dWhe1u5byS/3vbtIsnlDZdKAoZEwQN3HLHJrq56C0hpeEk99ZOFlf0lrp67pI5XDEO/Pr7ya20Slfv20fn5GVovw01fX9Li1C2vPD8UEu7al74k061mGCQcxSzq69OMqMjBHBFWdG8d6bpHh1dMn8K6bf3SQ3kP2+VUMhaZVEbk7DkxFSV5/i4x1MOlfFzxt4fsF0/RvF+vaLpcZYxafp+q3EUEQZixCoHwBkk++ecmuSZizEkkk8knvXlzjGej2/rsexTqSpPmjv/Xc73TLSxl+DuuTwC3lvYL61+0Nc6YvnRbzIFENyJSdpEeWUxjk9T1qhe+DNN0Hw7p15rWrXNtqep2zXlpYWdks6iLJWNpZGlTZvKtgKr4ABPJxTdL8fppfhS80EeG9IuILwo1xczNdedI6b/Lf5ZwoK72wAoB4yDUL+OWvNAtdM1HRtN1V7OFre0v7jzkuIIySQoMcqKwVixG9WxkjpxWDVRSk1tfy2tb8+/Q6uai4xT3Ubdd+a+vyfTr5am6PhVaeWbA6448TjSv7W/s8Webcp5fneV5/mZ8zyvm/1e3Py7u9O1f4U2On6fqQt9fe71ew0qDV5bT7Dsi8mTysr5pkzvXzQcbcEfxZyBnP8VtTfTvL+w6eNUNgNLOtBJBdm2A27Pv8Al52fu9+zft43Z5qrcfEfU7m61S4aC0D6jpcekygI2FiQRAMvzcN+5XJORyeOmJar3euny3/yt89y1LC2V167+Xnve/lsT6v460zUvDcmmQ+FtPsrlraygF/Eq+YrQBxJJwgOZSwLc/wjJbtyVqA1zECAQXAIP1qKnRuYpFcYypBGa9DDclGtGb2um/wOCpUlUS5uisfQ3xr+DPh+58Z+PL3w1q6wHR9atrW80mLShb21rHcuyJ5DiT59jABlMaDJO0sBk4mvfs66ZbeJr/wroXjqz1rxXZaxBpUlhLafZo5fNkdA8TmRmkaPCGVQmE3NhnC5PK6h8cNd1LUPF95Laacsvie9tr68CRyBY3glMiCP5+FLHnduOOhHWsO9+I2s3PxHufHEEsen69NqT6qr2qfJFM0hf5VYt8oJ6MTxwc11wnhrQ549fetfRaba+u9/VHjwpYuMXHn2Sttq7LfTv2PQfH37OTeDNHtNXk1jUNL0qTVH0qa78VeH7nS9r+W0kc0aL5zyROEcZChgcZQZyNn9obwnZ6R4nsPBXh/UfCCWtvFZJHZxWSWN4rm0V2muL6eCMFXLs2DOR8yZUEceTeMfGdj4sJkg8IaF4dunmaeWfSDdr5hOcrslnkjRcnOEVcYAGBxU3in4o694o8eN4wFx/Y2ubIVSfSXkgMXlwrCpRtxZSVQZOepPQcVMqlPklCKtdx2vsk77+f8AWiNIUqrqRnOV7KW9t21ba/S+q/Vjp/C158PNU0jVdWTQtXtI7uORrKy1uxvxMFYMUdYJZCqsBjLLjnv0re0Px9oF/wCINN8/wnbW2yK6gQ2VjFeM800rNE3kOFWUoGEaqx9COgWuS8TfEXxX40t4YPEPifWddghbfFFqeoS3Co2MZUOxAOO4qn4a8RXHhbU/7Qs4oXvEjdIZZlLGB2GBKgBA3rk7ScgHnGQCPMnDmu2tr2+49mlVcPdT0dr6X2dz3m78A6bdeNrzS4PAszaWtpf6jB5tvIq3d3s3rBFJEQWjj+VAkb4Lbj3GOcvvh7oa6bfz3mjDRtcj8NXGoXGirNNixnW4jSJ8O5dS8bE7JGOM5wMiua/4Xpro0tbEWWmgGzazmn8uQyTqYBArufMxuWMYG0AZJJBNcn4W8U3PhS9uJoYLe8huraS0ubS6VjFPE45VtrKw5AIKsCCBzXDGhWStzWsu+71/zX3LY9aeKwzafLe710Wi93y12fbd9z1bwT8PdC1DwnpeoS6RZ319J4fv79l1C+kt4JJ471Yo2d/NjCgISPvKO55rM1PwLosXijUoP7NFvGPCr6qLeGeR7eO6EG7dBLuJljDDg7nUnIywFc7bfF2+tbmQLo2knTG0xtJXSds4t44GkEjbSJRJuLjJYuTyfbEMPxTvoda+2/2Xpr2a6a2kx6UVlW2jtmBDKNsgkySWJYuWJYnNW6dZuTT3v1781vuuvu301y9thuWKstOW+nblv+T+/bW6k+DOn6XrnxA0vSNX0m31Wzv5RCwnlmjaMYJyhjkTnj+LI9quaZYaI2ieJvFd3oNtJDZXUFjaaPFPOtt5kgkJeRjIZSAI84Egyx9Bisvw/wDEWPwv4oh13TvC+jQXECjyIS940UTjPzjNwWLEHGCSvAwAeaZp/wARZdNk1iKLRNLfR9VCfadHk89rcshyrq3m+arAluRJ/ER04racZybautF189fvXX8jnpTpQilOz1fTy06bJ2bXU53V7u1vr+SezsV02BwD9mjlaREbA3bS2W25yQGJIHBJ610x8P2A+EEWt+R/xNDrrWRn3t/qRbh9u3O37xznGfeqsdhp/imSW+n1vQfDBLCNNPaC8wiqoAIMcMuR7s5YkEnrk3LfxPH4Ps5tDA0TxlpEkyXoEkd2sUcwBXKn9xJnacEHKnitG3ZJXvp+avr6eZlHlUnKVmmn23to7evketN8KdBj8RaxaWHhvTtQWLXbWyWHUNSmhMds9sJJPLxOjSPnJAG9uuFOK8t8QeH9Bh8G61qekpLKkPiL7FaXU7MHNqYpGAK8DJ2qclQfp0qhe/FDXb/z5JJYlu5dWTWftUabZEnRSq7edoUA8DHYc1bl+KTXceqwXvhrRL201C/GpPbP9qjSKbaVJTy51IB3McEkZPGOK5YUq0d3fbr25b/fZ/je99OypWw07qKS1fTvzW+6679LWtr3Hw5g8O+KfABtD4WudUv9KCSyraaejSXU/myusazKTM/mJtVo9u1UidwcgVxnhWyUat4k8Sa3p1vHDoyvI+nSWoSI3kjFIYTFgAAPlimMbYmBFV9J+Kt/okMdpa6bpyaSI7mOXTCsvk3AmPzGQ+ZvJACKpDAgIBzlt1fxR8Q7nxPpM1rLbJBcXmpTapfzxtxcStwihcfKqDdgEty7HPNV7OpzystJee2uv3rttoL21F04cz1j5b2Wl/R6O++r7HXeBtC03T/hvrfiEax4dGptdWtur6np0t0lorCVmj2NbOm9ti4ZQwAUjcuecnwP8J5/iBpz3cEmpJcy+eySW+jM+nxsiFgktwGURlsYwqMAGXnkgclbeJ7q18K32gJHCbO8uobuR2U+YHjV1UA5xjEhzx6V03h/4xaj4fsdGhTSNJvbjR4poLK8u0maSJJSxcYWUIfvtyVyPWrnCqud03q9ttNP8/8APffOlVoS9nGqtEtd9XzPz35evfTbZlv8MknOm3P9qkaRdaNLq0t8LbPkmPcrw7d3JEqrHnIzvU47U64tLFfgzHc2n2eeb+2EjuJZ9NWO5jdoWOxLgSsWiwmdpReTmsWHx5qUHguXwyqw/YnlMnnFW85VYozRA5xsLRoxGOqjnrVoeP0Hg1/Dg8N6QLZ3E5ud115xnCFBN/r9u7DHjbt5+7TlGq737q2217/lp8vMiM6Cty6aO++7Vvz19HboO13wZpvhjSLI6nq10uuXtlHfRWFtYrJEiSDMYkmaVSrFcEhUbGR3zjW1P4UWtgusWCa28viTR7EX95YtZhbcKApkRJxISzoHGcoASDgnjOFqPjptZ0W2stR0bTL27tbZbODVHEyXMcS/cHySrG20cAshOAM5xV/VPizqeq2l+HsNPh1PULZLO+1eFJBc3MS7flbLmMZ2KGKoCccnk5Gq3R9+3y+Xfr2HF4a+q7d+2vzvt07mj4i+E+n6NZ62lr4ie+1XSLOC/ubU2Bji8qUxjAkMhJdfNQkbcYPDZyB5vXV33xH1PULzXrmSC0WTWbKKxuAqNhY4/K2lPm4b9yuc5HJ46YzNS8RDUtK0exOl6bbDTVdTcW0BjmutzbszuD85HQHjArSmqi+PX/htfxMKroy1pq1r99dVbfra/wBx1njvR7e70rwJHosdvPHfWrxQOmmrZXM7idov32JZA7Fl4bI4I4qrqPw7sE8VW3hXTNal1HxG14lhMHsxFZJKTtfbN5pdgrZGTGucE+gNTX/iK2t6VpVjDoGl6R/ZZP2O4sXuvNhBkMhAMk7g5dickEjsRRqPxJub3V7bWrfSdM0zxBFcpeNq1ksqyyzLyWaNpGi+ZvmIWMAntgkVnFVFb1fbq7r8N+ptUlRk212j36Kz+d9uhoT+F9G0C3j8SaTqLeJbDSdWitr6zv7EWwk6shHzyB43EbrzgjuvNY3jDxXYeJYLGOz0C00VreW6kd7YLmYSzGRFOFHEakIOvA4x0p/iTx/Pr+mPp1vpenaHYzXRvbiHTVlAuJsYDMZJHOFBbCqQo3HiuWqoQk7Sqbrb7vLTv8vMitVgrwo6J7/e2rX12tfzv0HIjSOqqpZmOAAMkmuo8R2+m6Vren6PcRkW2nosN9NZqolklJ3SkE/e2k7QDx8nbJNY/h3Vk0LWrTUHthd/Zm8xImbClwPkJ4OQGwcd8Y4zmoLXUXg1NL6WOO9lEnmsl0C6SNnPzDPPPOO/eurt/X9f8McPc0PFHha48Mz2xZxc2N5ELizvEUqs8R6HB5U+qnp7jBOJVrVNUu9av5r2+ne5upm3PK55P+AA4AHAAwKq1KGFFFFMAooooAKKKKACrdl/x7X/AP1wH/oxKqVbsv8Aj2v/APrgP/RiUAVKtxf8gm5/67xf+gyVUq3F/wAgm5/67xf+gyUAVKciNI6qqlmY4CgZJNNrd8G+JV8K6x9se1W5VomhLK22WHdx5kTfwyDsxBx6U0JjD4L14309nHpF5cXVuFM0VvCZWiyu4BtudpwDkHkYOcYNRx+Etcm1T+zY9G1B9R2CX7Itq5m2Yzu2YzjBBziu++H3ivQ/B+o3aNrMklpLqdhciZoZAzxIXZ96gHlSy5GTkjIz1q1D460G/wBNaxvJ7Wee40m0hkn1NbvyDLHLI7xyGAiQ53KwIDKSoz6j16eFw86MZuolJ7q67X/PQ8yria8Ks4Rp3irWdnre35anD6B8OPEXiV9TSy0q7Z9ORzOht5CQ6kAxYCn95z904PBqjb+DdfvNRuNPg0PUp7+2AM1rHaSNLED0LKBleo6jvXXJ4ss9Q8X66+o31hbw3+lNp0d9ZRXLWykRoEJEgMxH7sKSQTnnBFR+EW8M6TaX0N9qdhd3cd7DJFJcC++yvEqtl4lhCOZQTgeZtGCcdSaUcNh5zjFSstbttLq1t00s+v6g69eKk5R10skm97X9bO/mefujROyOpR1OGVhgg+hrd8O/D7xT4vi8zQvDWr63Hll36dYS3Ayu3cMop6b0z6bl9RR4/wBTtNa8ca9qFhJ5tndXss0UgUruVmJBweRnPevQ/BHxL07w/wDDfwpo7avNZ3Np4zTV7y3jWUAWyxwhZCVGGwVfAGWHpzXFSp05SkqktrfjKMfwTcvRfM6KtWpGmpwjdvp8m/zVvmedeHPAfiXxit22g+HdV1tbTH2g6bZS3AhznG/Yp252t19D6VZ0f4Y+MfEVhDfaV4T1zU7KYgR3Nnps0sbncVAVlUg/MrDjupHavevCHjn4XR+LLnX73VbNLyLxndasj6tHqjCO0MivFLZRWu1BK21d3nkfcXIIGK24v2gfCFno7Wtt4jlgAkn2xxW9wqhZNdjuGAwmMNbKSR3A2nn5a66WGoS5eepa/mtPdv8A/a+T7nDVxmIjf2dJvVLVPu189k+mj+Z8x2nw/wDFF/pWoana+G9XudN05nS9vIbCVobVkGXEjhcIVHJDEY71gV9Z6p8c/ClzqthregX3hm01PR73VDB/wksOskyCe6llE0K2pMRWVJQrLMisCmDuXbt8l8K/GHw7oPhe10y78Ifb7qFGV7oQ6Od5JJzmbSpZe/8AFKx44I4A469OFKyhLmf9f1bod+Hq1KrfPHlX9f1f/h3zFh4J0a78Mx6nL4qtLa8awurs6eyLvWWKREjhzvB3SBiwOOing9RzqeHtVe8gtF0y8a6nhFxDALdy8kW0uJFXGSu0FsjjAJ6Vn16daePdNj8AQyyTt/wldnYz6JbqVfcbaRwwl34wNqNPFjOcOuOBXnTc4K61v+G9v0XpqevTVKq7S923Xvtffyu13enY5m68EvYeAoPEV217azXN55FvbTabKsM0Wzd5q3BGw8gjYOeCelZj+E9bi0iDVn0bUE0udgkV81q4gkYkgBXxtJyCOD2rrU/sVPhHPpn/AAk+nHVH1CPUhZiG737VgdDFu8jZvyw/i2/7VdP4u+I2kX+lajeaJJoVvJqGmQWEtpcpqJv40QRjy15a2+VowysMcDoDkVDqTUmrN69ull/wdf8AgGio0pRTcktO/W7/AOBpp+DZ5H/Ymoi8urT7BdfarRXa4g8lt8IT75dcZUL3z071b1Hwdr+j6eL6/wBD1KxsTIYhc3NpJHHvBIK7iAM8Hjrwa9h8UfELwXcQeKrrTZ4/7XvLOURzi1cPdy3TjzlLFMqI0VQASBlmwTmp/iZ4k03wz4s8bNf6rHrtzqT2dumjqkx8hIpI5SZWkQIMBCqhC/8ArD0Gc5xxFRyjFxt/w6vby13OiWDoxhKaqX18ttbX+7Za9jxXUPCOu6Tp9rf32i6hZWN1tFvc3FrJHFNuGV2MRhsjkY6irLeAPFCCEt4b1dRNObaLNjKPMlBIMa/LywKsNo5+U+leg+JPGGhKfGt/b6+2st4muIJILHyZke1USiUtPvQJuQDy18tn+83IHXnfif8AEa88SeL/ABc1lqkl5ourXasPMTiSKJj5OAw3IFBOAMdTmrhUqzsuW3rf+7/m/W33YTo0Kak+e9trW1+LX00Xmr+l6Pir4W694G1mK016znsLJ544f7UNvJ9mJYBjtdlUMQCcj/ZPpUfjfwhpPheGBtN8TWuvu93c27JboBsSJwqSZDtxIDkfTgmr3xXvtJ8Sa9L4h03WLe6+3LDu07ypkuLciFVYOWjEZAZSMq5zkcVwtaU+eSjKTs+qt/W3kZVfZU5TjCN09nfbft389hQCxAAJJ4AFdHq/w18X+H77TrLVPCut6beak/l2Vvd6dNFJdPkDbErKC5yyjC5+8PWtH4MeLtN8B/FPw34g1eBrjTrC6EsqpGHZOCBIqkjLISHHPVRXZeB9X8PfDv4kzajdeOLXxBDq9pqFk2u6dbXn2jTpZ42RLuRZ4Y2LAvuPlszY34JOA3qUqVOcYuUtW31S2St997X2XnqePVq1ISajG9lfZ67/AJWv3d7I88vPhr4u0/WV0i68K63bas0BuRYTadMk5hBIMnlld23IPzYxwa3PCnwH8c+LPHNt4TTw5qWmatKqySLqVjPCtvEcgSy/IWRCRjdjGa9R8NfFTw54A8NaRoNt4sOoX+maFryx6xp8V0kUdzdoot7eAvGkoIaPcWKqoaTr1NYXhX4r+H9E8Q/BLU7u7luD4bt5LfVSsTmSBTdzsgBIG8LHIGAUnA468V0/V8PGULzum1fVdb3+62r2180ccsRinTm4ws1e2j1stH8/wbseYXfwz8X2HiG20G58K63Brl0hlt9Nk06ZbmZBu+ZIyu5h8rcgfwn0qFPh/wCKJNdudFXw3q7aza7TPpwsZTcRbioXfHt3LkugGRyXX1Fel/DXV/CPw78QeKdOvPEGj69Z65o0lnb6ssGpJZwsZVcxXCosNwFdY9rGLcBvAO8b1rXv/i9ZJN4rifWNFi3eCh4e0uTwzHqIhcfao28lmuh5ufL8wEt8u0Bc9qyjRo8inKWtpO110Uml6uyS78339Mq1XncYx001s+ttfxem6t5nAeE/gF478YarrWm2vhvUra90i1kubuG7sZ0dCsfmLDtEZIlkX7ikDdkVxmuaBqnhjU5tN1nTbvSdRhx5lpfQNDMmQGG5GAIyCCMjoRXuVl8UPC9x4s0L7Tq5gtJ/AH/CNXmoNbSutpdNbyR5dQu91UlASgbjpnFcP4O8W6D8MNT1e1urW08bQTeV5N9Yw2vkjAJbaNR06Zxy2DhY+VOdw2kZVoUo/A+/zs2vldWfboPD1KtRv2its1o+y6+t9NzmvCHhnTfEUeoNqGvwaI1sITGs6BvP3yqjYyy/dVi568KenUUvEegHRdQvFtpW1DSoruW1t9USIrDclDyUOSDwVOATww9RU3jfxBaeKPE13qVjYf2Xazbdlrtt12YUA8W8EEfJGfljXrzk5J7T4d+KvC9j4Lm03xEUmkTUfMgt5YGkUJMiRTS/dIyiKWGcHdtIz28yo5wXOtfL1se1RjSqNUpWj/e17P8Ara76bnO+E/hzea9PqQ1CLU9LtbGyN29xHpU9yFJTfGrhB8iuuSHbjAz0qn4G8Cat491u2sdOsb24ga4ihubq1tXnW1V2xvfbwABuPJH3TzXoNj4i8O3nxP1zW5fEtlY6YtnPptp9ot7ovKhszbxuqpC21c4JDYIGeKr+DNa8N2Gm+HrO+8TQWSaF4gfUZvKtbiRb6PEWx4gEHI8th+82EBsjPSs/azvez1S6PTe/r0/q50ewpWS5lo5Lda2St1sk9bP/ADRzqfBjxVfadqeoabpN7qVlZ3v2NGgs5We5+aRS8YVSCqmMhueCwFVT8MNZuPC+m6vp9jf6m1w9ytzb21k7m0ELKMuVzjO49QMbT1rXtda0bW9K8aaRPrEGknUNVi1C0u7uGZoZFRpgVPlo7qSJQRlccEHHFaHhXx7p2iR/De1k1Z0ttI1ie61BY1l8tUMke18bfmygk6AnBIIGcVmp1reenT+7f8/xKnTwybttr1/vWVv+3bP08zyiuv8AAHw01bx7e/uLW9h0pFm87VI7N5YIWSIybWYYUE4UckfeFa+jfEjRNH002c3h77fIskp+0+Vpx3BnYj/XWEsnAIHLnpxgYA6Lwl4u8Mwp4S1G919dPOjadeWj6X9lmd2mlM2HUqnlhWEi5bO7KgbSORpVqVVBuMdenXo+nrZfMijQoOsozmmlv06pb+jb+R5XF4W1qfRJNZj0i/k0iM4fUEtnNupyBgyY2jkgde9R/wDCPap9s+yf2befavJ+0+R5D7/K2b/M24zt2fNu6Y56V6zH8RNHj8N6RcabJoVrqVlojaXLb6rHqJnJKusgjERNuyvuLDeB8xy3TNYc3j3TH+H0Uonc+LP7P/4R9oyrf8egk3iXdjb/AKvEOM5xnjHU9rUu7R62/PX02+/yu0sPQsm6nS7/AAuvXV29POxzOoeCZdL8C2XiC6N9bT3l35MNrPpsscUkOzcJkuCNjZORtHPGelZyeEtck0M60mi6g2jrnOoC1kNuPm2/6zG3rx168V1rHRV+EH9ljxNpzar/AGiNT+xiG73bfI2eVuMGzfn/AGtv+1TPiDf6T4vhsNZtNdtYHt9NtrQaHNDcLNC0SBGSMiNoihILglwcMcgHg0pz5mvPt0t/Wv8AwEQ6VNxTuttrre/+Wv8ATZyd14W1qx0eDVrjSL+30qcgRX0ts6wSE5xtcjac4PQ9jVGzs7jUbuG1tIJLm5mcRxQwoXd2JwFVRySfQV7F46+Imj6nputXWhyaFEurWUFrLaTx6j9vRE2YjAJa2GwoNrLj5RwASRXBaR4wsrDVdBuYtA07TJdPvILh761e5aaTYwJ3B5mTnGTtUc9MDiqpznNaxsRWpU6bXLO/9eX5M52DTLy5W5aG0nlW2AacpGWEQLBQWwPl+Ygc9yBW/wCNvBTeC00eOeS9F9eWguLi0vdNls2tnyRsHmAeYOPvLxXoHjHxb4Ll8NeILHQLqGC7u54rJZRbSL9ot/MWd53bYCf3m5cH5toXg44p3Gt+HNFu/hveLr9hraeH2jjvbW1t7kOw+1STFk82FFYBWA5IOe2OayjWqTUZcrWu1ulr/LX+tGdM8PRp88VNS0unfrzJW31dr/LbdM5u4+EPiK08MWuoz6VqcGoXeofYbfS5NPkWWYeUZPMTPLDgjAXt1q4fgf4h0/x1ZeHdYtrjTYbm4+zpqn2SRrd22FvkZgm/geo6GpvGeraJF4Gn0uz8RJ4g1K4119Tklit50XY0bLktKqktnBPHVuC3JrafxX4ej+M+neNo/EFubG4uUnlthBcC5tP3ODvHl7ThuPkZux6Vn7Ss7v16PsrfqW6OGi1G99V9pbXld/dbY8t1nw3q/h1oBqul3umGdPMiF5bvD5i+q7gMj3FZtdxdaufFHgXQdEiludT1/wDti7ma3SN5ZmWVYdpHHzFnVzgHOck9azPiL4St/A3i690W21RNXjttgNykfl/MVBZCu5trKSVIz1BrrjPXllvr+H/DnBOiuXnp6x0v5Xvp+BlaBotz4i1m0060huLia4cLstYGnkC9WYIoy2FBOB6Vqa54KurTxdqWh6PFfa21pJsDLp8sMzDKrloWBdPmYLg9yPWsjR7GDUb+OC41G20qI5JurtZWjXAzgiNHbnpwp/CvWtb8aaJY+PfH2s6d4iiuItb0u5js5bSK4jdZHePEbbo1IJVW5GVx37VFWc4SXKr6P79Lfr/wdDWhTp1Ie+7e8uuttb6fd/wNTz/Q/h/q+o+MLfw/eabqlhcl1Nyi6bNNPbREjMpgUbyACDjHPHrVnQ/hfrPizxLq+laDb3GoR6c0++6a0lQYQOVDKFJR32EKjc7jit5Nd0bWPFPgO6m1y3sYNG020W7mu4p2/eRTsxiUJGxLbCMHG3jG4UlhruiaP8XdS1BtZgu9I1IXyfb7aGbbALiOVFLI8audpdSwUHjOM9KiU6mtlraXTqtvv6fqaQpULx5npzRvrrZ7/d10+4wvDHwz1bWPGMWg6lYatpLhfMumXSZ7ia2jxw5gUbyCSoz/ALQrEsPDOpa5q1xYaLYXmszxFiEs7V3kKA43FACQOR16Zrqfh9b6N4b+JGk3154p0wafpl1BdtdRw3bLMFcFkRfI3bgB/Eqj3q94Z/4ROyufE8Gpaxpt+8zQtZPc/wBoJp8o3lpC6wokxdRgLkBcluvBqnOSfV6dvP8ArqTGlTlDVpO/dbWf9bHn1xpN9Z3EsE9ncQTxMUkikiZWRgcEEEZBB7UV9fp8e/hzsXOtITjkmwuM/qjH8yfqetFfPSzbGRbSwkn9/wD8ifTRyXLnFN4yK+cf8z41q3Zf8e1//wBcB/6MSqlW7L/j2v8A/rgP/RiV9WfElSrcX/IJuf8ArvF/6DJVSrcX/IJuf+u8X/oMlAFSiit7wXpOnazrYg1O7FtEI2eOMuI/tMg+7D5hG2PceN7cCmlcTdjBor13wJ4b0vxDrWprr3h2OCZdRsrBLJGkgW2V96twpBY4QHLEknk55BkPgzw59mn1v7HZWVsul2dyLS/mu3to3lkdS7GENKRhAByBuf0wp9OGX1J0Y11JWfrppfXS23Zvf1PPqY6nTqyouLvG342tbW/XsePUV614dutA0/WvGEWjWFlq9g2jS3CNI10AvyxmSFctGxjDbsMyh8KPm65xvB+j2WsLd6vdaRo0GnyXkNlFDdzXxjEjKSY4khLyliBnc5KjpgkjErAylOMIzTbv3to2t7bab+Y/riSlKUGrW7X1Se19/wDI8+orc8caNB4d8Za3pdsWNtaXksMW85barEDJ7nFerfC7w54QT4feHNV1vwrD4h1DVfFg0R3ub64hSO3KQMSFidcuNzbTnA3HIbjHNSoSqtq6Vrb+clFbX6yRrVxMKVNVGm0+3o3+SPDaK+l/AXwP0e28Wz2eraZo1/o1z4sn8P2cms3WoG8uI4ZArLbx2S4WQKSS8/yZK4CgMW6vQPgv8O9H8NxLqPhQa5exSTI95cajcxNLjWVsUysbqoAR8tgDJVcFeSemlgalXltJa+v8ql27O/8Aw6vy1cyo0r6N620t1bXfumvX5nx7RX1Vrnwn+F3gCa0tfEk2l2mmandaor6jdS6pJfW6R3MsESWogia3LRCNGYTFmJfBCjaT5d4V+D/h3X/C9rqd14v+w3UyM7Wvm6OuwgkAYm1WKXnA+9Ep54B4J5a1GVD4mvPy8n/VuzOyjXjXbUU/mt/Q84i8NavPZLeRaVeyWbRSTi4S3cxmNCFkfdjG1SQCegJANZtdDa+P9fstGTSodRZNPS1ns1h8tDiGZ1eVc4z8zIpznPHGK7PVdesl+C3hzPhjTJQb69t/NaS7zHII4P3oxOBvbOSCCvyjCgZzwSnKD1W7/wA/+AenCnTqaRlayvr6Lt8/keZ3dhdaeYhdW01sZY1mjEyFN8bDKuM9VI6Hoar17rr9louv2Npp11oyPf2/gmLUI9U+0SiVHjhVlVUDBNmAQQykndkEYArO8aeEPBfhfS73S5rnT4tTh06CezuYTfveXU7BHO8Mn2fymDNjYcjC/MTms44hN8rTv+l2r/h6nRLBNe8pK2m+mtk7fj6eZ43Vi+v7rVLuS6vLmW7upTl5p3Lu59Sx5NfQ/iz4a+DYLHxHBZeHksp7RdRWC6+2zsYzbrAysQzkHJmYHIxtA4zljyPxO8KeDPC0GvaPFPYW2saa0SWX2c37XdyRgP8AaPNjEGGUlwYioGABuBzUQxcKjVovX8v63KqYCpSi3KSsnbfqr9162PHqK3ZvDthFBZSJ4l0y6e4dEkt4Y7kSW4bqzl4VQhe+1j7ZHNdzq/hnQ5vitbeAodEj0m1TVIrBtUaWZr2ZMhS53yeUC+dw2xgDK4yOvS6iTS9fwtf8zijRcouV1ZW/G9tvRnltvby3c8cEEbzTSsESONSzOxOAAB1JPares6Dqfhy8+yatp13pd1tD+RewNC+09DtYA44PNdx4p0jSL/wVqmrW3h6PwzdadrI09EinmcXCMjlkYSux8yPYuSuB8/Kjit2fw1a+L/Hnw30m9Lm1n8P2pdIjh5QqSv5ansW27Qf9qsXiFZS6df8AwHm6eR0/VJJuN7vp/wCBcvW3U8bqxp+nXWrXsVnY2015dzNtjgt4zJI59Ao5J+leueGvCvh3xefCV/ceH4tFS78QnSrixtbmcpcw7VZmHmSM4ZS20lWA+YcA1ympeLdF0i4sL/wrpk3h3XtMvpDFcJK06ywgKI2k8xmHm5DZ2qqEN07VSrcz5Yp3/r+tCJYZwXNKSt89d9rry62ORv8ASb7SvI+22dxZ+fGJYvtETJ5iEkBlyORweRxxVStPW/EmpeIvsX9o3TXX2O3FrBuUDZGCSF4Azyx5PNdh8D/BumeMvFl+uq282o2ul6Vd6sNKt3ZJNReBNy24ZfmUMepX5tobGDgjrpQlUfK2lv6WWv5HDiKlOknKN7aev9X/AOCeeUV694FsPD3jGDxn4mm8H6cq+G9HW6h8N6fcXggunaZY2mlZ53m2RiTewR1HyrkqM57F/h74NtBeeILnwqoik8CReJF0E39wIbe7N2kIw2/zfKdfn2M5bEhAcfKy9scHKUPacytZvrslJ9v7j/A4ni4KXJZ3vbpv7um/95eXmfOFFfVvg2w8P+FfF96dK8I6cya98OptZFlJcXkghkezfzbeIicMY3KEncWcZwrriuA+HHhrwv4n8NeMvGep6T4d02CwnsrODTL2bVTp9r5u/fM/2cy3JJMYVd0gTdI2TwqkeDfNy8y6t9lZtfmvx+ZEMbGScuV20t53Sf6/h8jxGive7vQ/htpWkfEfxHoukReLtK07UdMi0lbu5u4YIxcRzNOjAGKV0VkKqW2t8iEkjcG6yTT9B+HN38dvD2m+FNP1Szs7G2vIYL6e8aQwNc2jmFjHOhMcW/cGGH4G5iMin9UabTmtE29/5eZdOq6q638k28YrqKi7tpdFu4r8OZaO2v3nyxWjpfhzVtcUtp2l3uoKJFhJtbd5BvbJVPlB+Y4OB1ODXfeCfAHh/wCIsWpaneavB4TxclItOtZrARIm0H5ft2pQykckfxjj72cgYcviTVfhnruoaX4e1t2tLe+juEuFW3fzJIgwR8xyTRnAduFkdTnknHHmTckrR3/4Y9Onyt3nt5ejt+P4HHOjRsVYFWBwQRgg02vpL4FLpdv4NttRupdEFy+oXFzJJO9+Jt0FrM4LBPk3KJAflBUox6uAKl8Bz2ek6Z4DeyuJbew1jUbqC40jRIZGt9QkMzRlZ5JiSIVi8shXDttLHCk7hxyxXLOUOXa35P8Ay/4Y9SGAU4RqKejv62TS726q+q+Z80UV9R+GItN0SfwTY2d3dvoOrS3sL6TYw/6PfZnljlku3J2lUhCELtc4Q/c4YweDBpukL4F06G9u5tA1i0uVfSrSLFveMZJFuZrt2O1vLjC4UBiPLHKDBMPGaNqP9e9/l/VmWstd0nPt+PL5+fl5Xuj5jor6f0hNN06DQdFa+vZtA1Lws8x0qCDFl/qWklup3Y4aQSK2Aq5BCDeuNpiZbGzshoU93eXGiXPg8XUelww7bC2UW/mm6dmOGmM4wCqjlxmTOUpvGWv7u36X8t9PTzBZY3yrnWv68vW+3vevlqfMtaU/hrV7aya8m0q9itFjjmNw9u6xiOQkRuWIxtYqdp6HBx0r6H1H+z7Oz1Tw/Je3l1oknhJbu102GHbYWkQgWRbolvvztP3VRzJy5OUHg954/wBf1DR30q41FpLB7e3tWhMaDMUBYwrkDPyl275Oec1tCtKo7RXbftd/jp/wTlqYeFGKc5Xvfa29k++2u/4HPVKlpPLbyzpDI8ERUSSqpKoTnaCegzg4+lRV1HiMf2H4d0nRV+W4lUajeDP8bj90p/3Y8H6yGuvoef1scvRXY+LNKsv7B0/VJY4tH1m5Pz6VGDtlixlbhVH+q3f3D1+8uBxXHUdWg6XCiiigAooooAKKKKACiiigAooooAKKKKACrdl/x7X/AP1wH/oxKqVbsv8Aj2v/APrgP/RiUAVKtxf8gm5/67xf+gyVUq3F/wAgm5/67xf+gyUAVKKKv6Lol5r98LSyi8yTaXZmIVI0H3ndjwqgdSeBRuA6HxFqtvJ5kWp3kUmY23JcODmMYjOc/wAI4Hp2pbPxNrGnXUN1a6rfW1zDF5EU0Ny6Okf9xSDkL7Diui0L4Zy+Kr+8h0jV7CaC2lht/tFzviWaWQEARjaxI3KQCQOMEgDOI7n4aXdjcyi51XTILCO1ium1IySNAVkYqgUKhdmJDDAU/dJ6c13Ro4nkjUSfK9nfy/yOOVWgpypytzLdfl+exg/8JJq/9sf2t/at7/auc/bvtD+fnG37+d3Tjr0qeHxp4ht7i8ni13U457zH2mVLyQNPgYG85y2ASOa6XRfhnBLfa9aatrVpYy2Fi13CyGV0lUhGSYFYmzEVcHHD8jjrXP2Hhi2vr+4g/wCEi0m3gjdI0u5vPEczN02qIi+Bg5LKAPXkZr2WJg1G9m76X13s766O6t66biVShO+l0rdOm6toY93dz39zLcXM0lxcSsXkllYs7sepJPJPvVm31/VLS0t7WDUruG1t7j7ZDBHOypFPgDzVUHAfCgbhzwOeKZrGlXGhareaddoEurSZ4JVByAykg4Pccdap1w3a/r+up1WjJLsdPpXxQ8ZaGt8um+Ldd09b6Zrm7FrqU0QuJW+9JJtYbmPdjkmqx8feJyhQ+I9XKEklft0uMmUTE/e/56gSf7w3deawaKfPLTXYXs4fyo6jTPil400SK9i07xdr1hHfTPcXSWupzRi4lf77yBWG5m7k5J71y9FFJyct2UoxjsgrU0zxTrWiWN1Zadq9/YWd0CLi3tbl445gRg71UgNxxz2rLoqGk1ZmkZOLvF2ZfOvamX3/ANo3e77N9j3ee2fIxjyuv3McbemO1Wf+Ey1/+xP7G/tzUv7Hxt/s/wC1yfZ8Z3Y8vO3GeenWseilyrsNTktUzWm8W65ciYTazqEom8zzd9058zzMeZuyed21c567RnpT7rxn4gvtGTSLnXdSuNJjVVSwlu5GgUL90CMnaAMDHHFY1FHJHsP2k+7Cte+8X67qekwaXea1qN3plvtENlPdyPDHtGF2oTgYHAwOBWRRTaT3JUnHZmzqPjTxDrF3Z3V/r2p311ZNvtZ7m8kkeBsg5RiSVOQDkY6D0p+reOvEmvrAup+IdV1FYJBLCLu9llEbjoy7mOD7isOilyR00H7Seur1Nm/8Z+INV1G11C913Ury/tf9RdXF5I8sPOfkYnK888VjsxZiSSSeST3pKKFFR2QnKUtZO4Va0zVLzRdQt7/TruewvrdxJDc2sjRyxsOjKykEH3FVaKtNp3RDSaszpLj4l+L7vxDba/P4r1ubXbaMxQapJqMzXUSfNlVlLblHzNwDj5j6mqd74w17Ur7Ur271vUbq91KMQ31xNdyPJdRjbhJWJy6/InDZHyr6Cseiqc5PRv8Ap7kqEVsjXg8Xa7a6lp+owa1qMOoafEsNndx3ciy20aghUjcHKKASAFIAyauwfEvxfa+IrjX4fFetw67cxiKbVI9RmW6lQAAK0obcRhV4J/hHpXN0UKclsxezg+i7fI19T8X67rTag2oa1qN8dQkSa8NzdySfaXQEI0m4neygkAnJGTiprPx34l0/xA+vWviLVbbXHXY+pw3sqXLLgLgyhtxGAB16AVhUUuaSd7jcIvRotapql7reoXF/qN3Pf31w5kmurqVpJZWPVmZiST7mqtFFSWXrTXtTsLX7Nbajd29vlz5MU7KmXXY5wDj5lAU+oGDxUum+KNZ0ewurGw1a+sbK6BFxbW1y8ccwIwd6ggNxxzWZRUuKe6LU5K1nsadl4n1nTdKudMtNWvrXTbnJns4Ll0hlyMHcgOGyAByO1Fp4n1jT9JuNKtdWvrbS7klp7KG5dIZSQASyA7W4A6jsKzKKHGL3QKclaz2NOPxRrMWiPoyatfJpDnc2nrcuLdjnOTHnaTkA9O1B8T6ydDGinVr46OG3DTzcv9nBzuz5educ89OtZlFHKuwc8u5pv4n1iTRE0ZtWvm0dG3Lp5uXNupyTkR52g5JPTqazKKKaSWxLbe7FU7WBGMjnkZqzqWpXOsX897eSma5mbe7kAZPsBwB6AcCqtFMRLc3M15O89xK880h3PJIxZmPqSetRUUUAFFFFABRRRQAUUUUAFFFFABRRRQAUUUUAFW7L/j2v/wDrgP8A0YlVKt2X/Htf/wDXAf8AoxKAKlW4v+QTc/8AXeL/ANBkqpVuL/kE3P8A13i/9BkoAqVoaJrt74evftNjMYnZTHIhAZJUPVHU8Mp7g8Vn1ajRTplw5UbhNGA2OQCr5/kPyo2A6/w58SLbwzqE1xaaIqQyXtre/ZkuSFQw7tyqSpOGLnGc7Rx83Wrel/F+fTrdLVbe9trb+z4LJ5NN1BrW43RO7K6yBCADvYFSrDHvgjzuiu6GNxFOCpxlovJdrfkck8JRqSc5xu3a+/TY6638drH4k1K/uodQ1Oz1C0eymjvtQ826MbKBnz/LxkFQRlMYGMGr3hf4j2nhO2v7WwsNStoJ7mO5jltdV8i5wikeVLKkQMkZLZ2qE+uea4OiphjK1NqUXqvJdXft3HLC0Zrla006vpsa3ivXf+En8Tapq/kfZvt1w9x5O/fs3EnG7Az164rJoorkbbd2dEYqKUVsgorsvBPwu1Lx5apPY3un26tfJYbbuVlYO0byA4Cn5cRsM9c44rB8PeH7jxL4j0/RbSSFbm9uUtYpJGIjDM20EkAnHPYGs+eN3G+q3N3Smoxm1o9vyMuipLiFreeSJiC0bFSR0yDio6pO+pEk4txe6CiiimSFFar6Bs8MR6z/AGjp533Ztf7PE/8Apa4Xd5hjx/q+27PXisqkmnsNprcKKvajol7pNtYT3UPlRX8H2i2bep3x7mTPB4+ZWGDg8VY1Dw/9g0HS9U/tLT7n7eZB9jt591zb7G2/vkx8m7qvJyKXMv0K5JPp0v8AIyaKKkghNxPHECFLsFBY4Aycc1W5m3bVkdFdf44+GWo+AoVlvrywuQb24sNtnKzkSQ7d5OVHHzjHf1ArkKiE41I80XdG1SlOjLlqKzCiiirMgooooAKKKKACiiigAooooAKKKKACiiigAooooAKKKKACiiigAooooAKKKKACiiigAooooAKKKKACiiigAooooAKKKKACrdl/x7X/AP1wH/oxKqVbsv8Aj2v/APrgP/RiUAVKtxf8gm5/67xf+gyVUq3F/wAgm5/67xf+gyUAVKtxf8gm5/67xf8AoMlVKtxf8gm5/wCu8X/oMlAFSvXPg/46l8DfDb4nXGnaxHo+vT29glg6yqlyx+0YkMOfm3BGb5k+ZQc5HWvI6K1p1HSlzR7P8VYwrUo1ocktrp/c0/0PrKPWdL1j4ieNPENj41+xavPp+i7P7K8R2eiy3sj20X2pzfSqwAR1JkjQbmYjI+Wu71P4teH/AA3c+NG8P+K9GtxdXmpXqG2vIGFxKdGhKP0G/dcgn7oDSL93cMD4Sor0XmMlGcYRtzdul2m7etv6Vkea8shJxcpXUbdN7JLX7j7S1D4haGNZ8WXfhvXgfEk2sWF3PcaZ4sstEe7txYRDm6uI3jnQTebvi3AlmBYNjjxePxZ8M5PEHiW48QeFbWzuLjVZ5YbOytJdSgtojj93HPb6naRsobdjbGRgjDEEAeK0Vy18S67u1by6Lbb7td9b7XOrC4SOFVk7+fV+v6aaF/XprG41u/l0yPydOed2t4/LaPbGWO0bWkkK8Y4Mjkf3m617P8I9aTS9O8FPp3iWx8P2sOqySeIFl1FbWSdQ6eVvUkPKhQlQACgJYtt+Zq8JorzalP2keW/9f1+J69Kt7Kblb9Pu7dvS6PoLwx4s07TvCWkjTWS+SJ7z+1dLfxHaabBcu8jf6+CaMm4VoigVlY424G0jJwfBmqC7+HR0m71MeGNLC3k323TvEEETzbl4S5sd3mzklAgI2naw4IHPjdFYfVo2kr7/APB+Wl9PxudksfKU1Nr5dOnlfW2uvpY9Vn1XUJvhxodv4U1630myhtJ01iwXVorKaa4LsWZ0Z0acNH5YXbv4BXrkGTUvipfeHPC3g7T9KurS4tP7Gmg1CxOGSYySzrsnCkFtqtuVWPylsgc8+TUVo6EZaS1V7/ffT8dDCOKnB80dHyqP3cuq83y697nq2oJqOofA21tL3XLC7mtdRF3b2c2uW8ksNr9nwAkRlLL8xx5YG4H+Guw8aazcaZpesx6tq9r/AGJceG7GDT9JS8iaRrwxQMsv2dCWVl2sTI4BxgAnIFfPNXtZ1u98QXi3V/N586xRwB9ir8iIEQYAA4VQPw5qJYfmk3fR6/l/luaQxaglpqlbfzvr5eXbQ9M8b+LfEHir4e6BNH4skvLSOwMGqWNxrSiZ5hcOQXgeQPL8pjIYK3A9uH+MRc3fgjwU+u6zZay2mXE4vYk1y3u7hIHki2KqrKzEbVbhfu45xXkVFaKiotOPRt7d7/5mUsS5RcZX1ilv2tZ/hqfQmseJo/teuPqviTTtS0C41Cyfw9ZwXkcq2qrMGV0iDFrVUhDIwYJndgg445v4heNj4q8PeNbe81eG/Fv4ijbSofNQhLf/AEhWMCjjYQIsleCSCeTk+P0VlHCxVtdv05f/AJHX1N5Y6cr6b3/FSX3Lm0XSwUUUV2nmBRRRQAUUUUAFFFFABRRRQAUUUUAFFFFABRRRQAUUUUAFFFFABRRRQAUUUUAFFFFABRRRQAUUUUAFFFFABRRRQAUUUUAFFFFABVuy/wCPa/8A+uA/9GJVSrdl/wAe1/8A9cB/6MSgCpVuL/kE3P8A13i/9BkqpVuL/kE3P/XeL/0GSgCpVuL/AJBNz/13i/8AQZKqVajdRplwhYbjNGQueSAr5/mPzoAq13vw18E6TrmieK/EniCW7OieHbWKWWz06RI7m6lmkEUKK7qyxruOWcq2AMBSTkcFW94R8c614FurqfRrtIPtUJtrmCe3juILiI9UkhlVkcZAOGU4IBHNbUpRjK8lfR/fZ2/H+mY1ozlC1N66fdfX71c7TRvCXg6fwjr/AI3vrHXR4fttQttKsdHt9Sh+1GeSNpGeW6Nts2BY3wBDkllGRgk9l4j+CngTwFYa9qmtTeJNRsYNW0+0sLazmgt5jBd2guh5zNG4DohIJUYYrjChsr5bpnxb8S6Pf6rc2cunQx6osa3lh/Y9mbGXy8FG+yGIwBlIyGCAgljn5jmrrnxM8TeJbbUbfVNWkvYtQ1FdVufNjQl7lUZFfO3IAVioQEKBgAcDHfCthYpc0L7dF3V+ut9bdtttuKVDESmvftHW+r+XTp+O77Hs1t4F8EeBtO+Nmjavoeoa7N4dlhihvkv4IZfJN7GieUWtX8qTB+dhuDAlQq5zWF8PfhB4V8Q+GoPEmsNdWml6nrMljZwSeJdN097S2jCGSZ5LlV+0uPNQbI0TO1iSu5RXAWvxf8V2vifW9fGoxT6lrasmpfarG3nguwzBiHgeMxEZUEfLwRxik0n4teJNFtr+1t5dNl0+9u/t0un3mj2dzaJPgjzIoJYmjiOGI/dqvGB0AAzp1qKUfaRvaNtlvzX/APSdO/5k/V8QlK0tW77v+VL5e8r+ez0PR/Dnwf8AA0Nrpp1nUNW1ttQ8YT+F4LrQrqCG3eJPJC3as0cm7/WEhBwwYfOu35p5/DvgXwt8G/EMWreHNS1TUtK8WrpU2oWmpwW80rLFccxs1pIY4jsyYiWy2DuGMV5JB8RNftYLCGC9jggsNUbWbWKK1hRIbttmXVQmMfu0wn3Rt4UVd0n4t+J9Hk1pory0uY9ZuPtd/b6jptteQTTbmYSeVNG6K2XblVB5x0pOvSs1GNtEtl2h/wC3KXya9FUsPWclJyvZ33a6y7eTXzXzOl8Gfs6eIPHPhe116wufLtLneUQ6JrFxja7Kf3lvZSRNyp+65x0ODkDntH+Kut+HfDw0K3S0NpHDeW4aSJi+24CrJzkcjYCOOMnOelcWTuJPr6DFJXmzhGpdNadj2KdWdJ80HZ9z6A0/4YWOra/4S12OKxWz+zaXJPpSwDbcIIo/tErD7uAzxhhglvMz1684vwp0NPD9pNqF+lhqF9pjaml1LrNlFDCzKzxQ/ZW/fPuUBd4I+ZuFIBzyNp8WvFlgdPMGrtH9gsm0+2AgiISBsZXG3k/KvzHLfKOeBVJfH2s/2JFpUslpd2cMTQQ/bNPt7iWGM5O2OWSNnQZJICsME8Yrh9lX19709Nf+A/XTbf1PrGFfL7j2V9tXp5/4l6We+3pnirw5oPigWNq7ahBrlt4Ptb9LrzEFqPKtUby2TYWOVDfPvXBIG09T4jXUXnxK8Q3+kDTZbuBbf7LHYmSGygine3QALE0yoJGT5V+UsQcDOa5euilCUL3en/Bf/A+448TVhV5XFa/8BL9G7+fkeg+IvBGlWvgu31XRIrnWAsEEl5qMOpwOltI4+dJLQR+bGAwKh2bacAgnIFTeM7y3m+HXgExtqB0lJb1BYXFxC5j2yRmQxyLCpG4ux+cPjjr35q88fazeaNLpW+ytbKYIJksdOtrVpgvKiR4o1ZwDzhiRnB61JrPxE1rXtEi0m8/s77BESYo4NJtIGiJILFGjiVlyVGcEZxzmp9nO6b1s7/K1vv18inVpKLUbpuNtlvdeezt1udn4+0Pw5qWreE9I0XRrrTdS1TTtOEU7XsRhBlAGZEWBS788vuGTzjtVP4hfDzQPDmj3s+n34ivbK9Ft9nn1myvJLyM7gZVjgO6EqV5R93Dj5sg1yNx451m60iz02aeCSGzVUtp2tITcwqrFlVbjZ5oUEnADYHTpxR4i8c6t4rjK6mbGaRn8x7mPTraK4kbHV5UjDuTnncxyeTk1KpVI2Sel337/AOV1/wAEuVejJSbjq0ktFpo0/wAbO/y23p+GNDk8T+JNK0eKVIJL+6itVlf7qF2C5P0zXXWvhzwrrfxE0jwzp0GrwwS6oljcX1zeRM0qFwhZIxCPLPU4LPjpz1rgre4ltJ454JHhmiYOkkbFWRgcggjoQe9dJefErX77V7LVZJrJNTtLgXcd5BpttFK0oOQ7ukYMhzz8+cmtpxm2uXY5acqcYNSWunnprdfkdPpvgXwh4s8QaZouh6lqMN4b+W3uvtxT97bRx7zcR/Kqx52uNjO2PlJbGakv/hlo9zf6EmkNNPLdzyxXGkW+tWN/cBEXeJRNFiONGGQS4+TazfMOK850/Wr7SdXh1SyupLXUIZfOjuIjtZXznIrbHxK12PV7XVIH0+0vrfzAslnpVpAGDqVcOqRASAgkYcEcn1rF06qtyy+/v/l+XQ6/b4dt80OvTtf13X49fP0XRfh/4d0Px38PpriylvbDW7jyzYHVbW+SOVLhUy00UZjmjKkZjCqc5BauZ8P+EtB8b+ML+Cxtb3TNN0+1nvLqO51S33S7GwFSV4o44gWZRlgwAyeelc3q/wAQtf1ubSZbi9SNtJYvYCztorZbYlg2UWJVA+YA9Ov1NSP8R9ebXU1iOe0ttQCPGz2un28CTK+d4lRIwsgbJzvBzSVKqldvXXq9N7evz/Eft6F7cvu3i9lrZe96Xfb8Drrv4a+Hba5uL8X0k+lWekNqN3ptnqdtd3MUolWFYftEQaPBZ0fdsyFJG3NZnxle2kvPCjWcMsFqfD1oYop5RK6r8+AzhVDH3Cj6VhQfEPWrXVW1C3awtp3t2tZI7fS7WOCWInJWSFYxG/OD8ynoPQVR8TeLNV8YX0d5rF2by5jiECOUVNsYJIUBQBgZOPQYHQCnGnU5ouTvb/g/5rV/8PE69H2cowjZvyX93/J6LTUu6B4cttV8J+KdUleVbjS4rd4VQgIxkmWNtwIyeDxgjmuuh+HXhy2165s7y+kJXRrK/trSfUoLA3M00cTyKLiVDGgUOxCkZOAM8HPC+HfFmp+FXujp00SpdxiKeG5toriGVQwYBo5FZTggEEjI7VpXHxN1++1i51S+lsdTv7hI45JtR0y1uiVRdq4EkbBTjqRgnvmrlGo5Oz0/4by9SKdShGPvrX087337abHXfCyw/wCEd+MMmmSWuraFqameG3IuYWltP3TkiTfAyy5XjICdcjtXOeFPD3h+Xwbqmv64upT/AGS+t7SO20+aOLeJFkJJd0fGNmehz04zkU9N+JviLStfvNbhu7eXVrt98l5d2NvcSA4I+QyI3ljBIwmBjA6AYzr3xXqV9Z3to8kEVpeXEd1Nb21rFBGZEVlUhUUBcBm4XAOckZpKnO931Ue/R3f4N21G6tKySvZOT2XWNl5XTSb0t91j17R/gJprazqkFxDrWs2dv4hGj79MkSJrODbvNzOWjcEAMv8AdA2tluQK8Z8Qw2NtruoQ6Yzvp0c7pbvJIJGZASAxYKoORz90da9K0X4tWF9oxi8R3E7alJqct/cz/wBhWWpJcB0jUhVnZVhP7s5KKc5GegFeceJtRs9X8Q6jfafYJpdjcTvLDZI25YVJyFB9vy9Kzoqqp2qO+ny6fnr+N+hriXQlTvRVtfna7/JWv8rdTotO8O6FpXgi08Qa5Hf6g+oXktrbWenXcdt5axKpd5HaOTJJdQFCjgEk8gVpaB4W8GReEdG1rxFcatH/AGjqc1iyWciBYIkERMxJjYttDnKAZbjBXHPLaH441fw9p0un2sttNYSyic2t/ZQXkSyAbd6pMjhWI4JUAkAZzgVRuddvrvSbbTJZg1jbTSTxQiNVCvIFDnIGedi8dBjjFbOE23rpf8DnjUpxS02Xbr3v+h6boPwm0C40PSbjUdVWL+1hcPFqT6tZ2cVrGrvHE7W0x82YMyFjtK4BAGSDVfwj8JrXXNEiN9Bc2l5dWV1d214+qWsSN5SyMuy0YGaVD5f+sUjqeMLk8Xp3j3WdN0ePSlks7qwiZ2hi1DT7e78nfjf5ZljYoCQCQpAzz1q7pnxY8UaPpsFjaahFHFBbPZxyNZQPMsD7i0XmshfZ8x+XdgcY6CsZU69pKMtXt+Pbrt5aff0Qq4Tmi5wdlva3lfd7PXzV9ze1NPCcPwl0C6OhX/2+a6u4ftMeoQqxkWOH5nP2clo8tkJkEfN8xzkXrv4UaJp/htDd6glpqj6OmprdT6xZrGZWQSrb/ZCfP5QhQ+eWOdu2uB07xpqul6FNo0UltLpsrtL5F3ZQ3Gx2UKzRmRGMbEAcoQeB6CpZvHus3OixaXcyWd5bRQfZopLrT7eaeKLJIRJ3jMigZOAGGO2KuVOpryvr3f8AWn49exEK1Gy9pG9lbZd/1XzXTuVW8LXq6GNWM2nfZSM+WNTtjcdcf6jzPN6/7PTnpzXbeJPB3grQYFsDfaqutzaPb6jDLIUNv9okjjcW+xYyx3BnIfcoX5QQcFj5lV/WNcvdfuo7i/n8+aOCK3VtiriONAiDAA6KoGepxzW0oyk1rp5HPTqQgn7t3brqr3+XQ9K8d/CnRPC2m6zDDqCx6tpTRIDLrFnP9vbISVUtYz5sJDHcAxb5VOdppNb+ENra+Fb+5iiudN1bT5rSKSK91S0naXzjtO+3i+e1IJU7ZGbgkZyM1xOs+P8AWvENp5Goy2l0+EBu30+3F22wAKWuBH5rHAAyWJOOc1b1z4q+JvEWnX1jfX0D2986SXYhsbeF7h0OVaR0QM7A9ySevqa54wrpK8k9Vffy/PX7/u6pVcK3K0WtHbbfW33O2u/62vGuleFvCfiC40OG01e+uNOuhBd3rX0USXGziXy4vIJjy2dpLvgDkHOBofGKDw3Z61Ba6Ro91p101nZSFzeRGDa1ujH92sCHecgl93JycDPHL6/451fxRbLFqklrduNmbs2MC3Um1doLzhBI/HXcxzjnNM1fxpquvaXa2F/JbXMVsiRRTNZQi4CIMIpnCeYygcYLEcD0FXGnNcrk7tb6vXz/AOBsZyrUrzUFZPbRaa7fd13LkPw/1Ea5pOnyfZb2S/nWFItH1C1vpTyM/LFKQDg8bio468HHfRfBzRr7UPC217nT7bUtRn0+6gi1e01N4ykauHWWBQgPzYKMMjGehFeTaNrN74e1a01PTp2tb61kEsMygEqw6cHgj1B4PQ13Phn4yanb+JfD9zrciTaRpV090lnYWFvAqsykMVRFReeMg8Hk9TSrRrNXgysPLDJ2qJ6+jX9enzuanh34beF/GB0S8sJdXsNMury9sbhbmWKafMNt56SphFAByAUOcYxv5zWY8lj4GXwt468JpdRf6ZPELTV5UnIki2ENlFTKssgyMZBB5PWofCvxavbLxdo+p6yyy2GmRXCQWdhZQQxRmSJ1yIUVI+WYFiRkgc5wBXLeIfFmp+KDajUJozFaIY7e3treO3ghBYs2yKNVRSSckgZJ61ChVc7Sen/D/f07WLnVoeyTgve16elnvp173t0uS+KvGV/4w/sv7cIV/s6zWyh8lCuUVmYFsk5PzH06DisKiiuyMVFWiefOpKpLmm7sKKKKozCiiigAooooAKt2X/Htf/8AXAf+jEqpVuy/49r/AP64D/0YlAFSrcX/ACCbn/rvF/6DJVSrcX/IJuf+u8X/AKDJQBUqSCCS6njhiQySyMERFGSxJwAKjrqPhiiv490XcA2J9wyOhAJB+oIBprVieiG3nhJLjxNcaLpU6zXNugQieUD7ROoAkSLjH3t20E846kkCuclieCV4pUaORGKsjjBUjqCOxo3M8u5iWYtkknJJr0P4/wAaR/E2/wBiqu6GFjtGMny15NT0T7lW1aPOaKKKYgooooAKKKKACiiigAooooAKKKKACiiigAooooAKKKKACiiigAooooAKKKKACiiigAooooAKKKKACiiigAooooAKKKKACiiigAooooAKKKKACiiigAooooAKKKKACiiigAooooAKKKKAP//Z;" parent="1" vertex="1">
                    <mxGeometry x="-50" y="200" width="221.1" height="100" as="geometry"/>
                </mxCell>
                <mxCell id="42" value="parseHTML" style="rounded=1;whiteSpace=wrap;html=1;strokeColor=#FFCC99;fontColor=#000000;fillColor=#FFE6CC;" parent="1" vertex="1">
                    <mxGeometry x="270" y="220" width="120" height="60" as="geometry"/>
                </mxCell>
                <mxCell id="43" value="" style="rounded=0;whiteSpace=wrap;html=1;strokeColor=#000000;fontColor=#000000;fillColor=none;" parent="1" vertex="1">
                    <mxGeometry x="490" y="20" width="250" height="450" as="geometry"/>
                </mxCell>
                <mxCell id="45" value="" style="shape=flexArrow;endArrow=classic;html=1;strokeColor=#FFCC99;fontColor=#000000;curved=1;fillColor=#FFE6CC;" parent="1" edge="1">
                    <mxGeometry width="50" height="50" relative="1" as="geometry">
                        <mxPoint x="415" y="249.5" as="sourcePoint"/>
                        <mxPoint x="465" y="250" as="targetPoint"/>
                    </mxGeometry>
                </mxCell>
                <mxCell id="46" value="" style="shape=flexArrow;endArrow=classic;html=1;strokeColor=#FFCC99;fontColor=#000000;curved=1;fillColor=#FFE6CC;" parent="1" edge="1">
                    <mxGeometry width="50" height="50" relative="1" as="geometry">
                        <mxPoint x="194" y="249.5" as="sourcePoint"/>
                        <mxPoint x="244" y="250" as="targetPoint"/>
                    </mxGeometry>
                </mxCell>
            </root>
        </mxGraphModel>
    </diagram>
</mxfile>